<mxfile host="app.diagrams.net" modified="2023-10-28T22:07:45.981Z" agent="Mozilla/5.0 (X11; Linux x86_64) AppleWebKit/537.36 (KHTML, like Gecko) Chrome/118.0.0.0 Safari/537.36" etag="VflrP3ooosON0Kp1PMrA" version="22.0.8" type="device">
  <diagram name="Page-1" id="QKj5pxGDLtB55OMRxoq_">
    <mxGraphModel dx="-11" dy="671" grid="1" gridSize="10" guides="1" tooltips="1" connect="1" arrows="1" fold="1" page="1" pageScale="1" pageWidth="1169" pageHeight="827" math="0" shadow="0">
      <root>
        <mxCell id="0" />
        <mxCell id="1" parent="0" />
        <mxCell id="acJWVAGeEPPxB89UP1IW-1" value="Program Argument Parser" style="rounded=0;whiteSpace=wrap;html=1;" vertex="1" parent="1">
          <mxGeometry x="1397" y="354" width="120" height="120" as="geometry" />
        </mxCell>
        <mxCell id="acJWVAGeEPPxB89UP1IW-2" value="Monitor" style="rounded=0;whiteSpace=wrap;html=1;" vertex="1" parent="1">
          <mxGeometry x="1681" y="318" width="192" height="192" as="geometry" />
        </mxCell>
        <mxCell id="acJWVAGeEPPxB89UP1IW-3" value="Consol" style="rounded=0;whiteSpace=wrap;html=1;" vertex="1" parent="1">
          <mxGeometry x="1997" y="354" width="120" height="120" as="geometry" />
        </mxCell>
        <mxCell id="acJWVAGeEPPxB89UP1IW-8" value="pcap file name&lt;br&gt;interface&lt;br&gt;prefixes&lt;br&gt;lease time" style="shape=flexArrow;endArrow=classic;html=1;rounded=0;exitX=1;exitY=0.5;exitDx=0;exitDy=0;entryX=0;entryY=0.5;entryDx=0;entryDy=0;" edge="1" parent="1" source="acJWVAGeEPPxB89UP1IW-1" target="acJWVAGeEPPxB89UP1IW-2">
          <mxGeometry x="-0.1151" width="50" height="50" relative="1" as="geometry">
            <mxPoint x="1687" y="554" as="sourcePoint" />
            <mxPoint x="1737" y="504" as="targetPoint" />
            <mxPoint as="offset" />
          </mxGeometry>
        </mxCell>
        <mxCell id="acJWVAGeEPPxB89UP1IW-9" value="prefixes&lt;br&gt;stop flag" style="shape=flexArrow;endArrow=classic;html=1;rounded=0;entryX=0;entryY=0.5;entryDx=0;entryDy=0;exitX=1;exitY=0.5;exitDx=0;exitDy=0;" edge="1" parent="1" source="acJWVAGeEPPxB89UP1IW-2" target="acJWVAGeEPPxB89UP1IW-3">
          <mxGeometry width="50" height="50" relative="1" as="geometry">
            <mxPoint x="1877" y="414" as="sourcePoint" />
            <mxPoint x="1977" y="404" as="targetPoint" />
          </mxGeometry>
        </mxCell>
        <mxCell id="acJWVAGeEPPxB89UP1IW-10" value="OUTPUT" style="shape=flexArrow;endArrow=classic;html=1;rounded=0;exitX=1;exitY=0.5;exitDx=0;exitDy=0;" edge="1" parent="1" source="acJWVAGeEPPxB89UP1IW-3">
          <mxGeometry x="-0.1321" y="14" width="50" height="50" relative="1" as="geometry">
            <mxPoint x="2213" y="430" as="sourcePoint" />
            <mxPoint x="2223" y="414" as="targetPoint" />
            <mxPoint as="offset" />
          </mxGeometry>
        </mxCell>
        <mxCell id="acJWVAGeEPPxB89UP1IW-12" value="PROGRAM&lt;br&gt;ARGUMENTS" style="shape=flexArrow;endArrow=classic;html=1;rounded=0;entryX=0;entryY=0.5;entryDx=0;entryDy=0;" edge="1" parent="1" target="acJWVAGeEPPxB89UP1IW-1">
          <mxGeometry x="-0.1228" y="24" width="50" height="50" relative="1" as="geometry">
            <mxPoint x="1283" y="414" as="sourcePoint" />
            <mxPoint x="1343" y="400" as="targetPoint" />
            <mxPoint as="offset" />
          </mxGeometry>
        </mxCell>
      </root>
    </mxGraphModel>
  </diagram>
</mxfile>
